# xmcd
#
# Track frame offsets: 
#        150
#        23927
#        47070
#        62682
#        81567
#        101680
#        122952
#        140722
#        165160
#        188847
#        203507
#        214562
#        224880
#
# Disc length: 3210 seconds
#
# Revision: 4
# Processed by: cddbd v1.5.2PL0 Copyright (c) Steve Scherf et al.
# Submitted via: ExactAudioCopyFreeDBPlugin 1.0
#
DISCID=c30c880d
DTITLE=Kei Kobayashi - Softly
DYEAR=2002
DGENRE=Jazz
TTITLE0=Softly, As In A Morning Sunrise
TTITLE1=My Foolish Heart
TTITLE2=Smile
TTITLE3=Almost Like Being in Love
TTITLE4=Laura
TTITLE5=I Concentrate on You
TTITLE6=I Can't Give You Anything But Love
TTITLE7=Speak Low
TTITLE8=The Night We Called it a Day
TTITLE9=I Remember You
TTITLE10=When You Wish Upon a Star
TTITLE11=Night and Day
TTITLE12=Now
EXTD=YEAR: 2002
EXTT0=
EXTT1=
EXTT2=
EXTT3=
EXTT4=
EXTT5=
EXTT6=
EXTT7=
EXTT8=
EXTT9=
EXTT10=
EXTT11=
EXTT12=
PLAYORDER=
